<?xml version="1.0" encoding="iso-8859-1"?>
<!-- Generator: Adobe Illustrator 19.0.0, SVG Export Plug-In . SVG Version: 6.00 Build 0)  -->
<svg version="1.1" id="Layer_1" xmlns="http://www.w3.org/2000/svg" xmlns:xlink="http://www.w3.org/1999/xlink" x="0px" y="0px"
	 viewBox="0 0 512 512" style="enable-background:new 0 0 512 512;" xml:space="preserve">
<path style="fill:#FF8E00;" d="M256,98l-31.347,243.005l79.716-20.898c3.699-18.001,12.644-34.088,25.179-46.577l0.006,0.007
	c18.321-18.622,29.624-44.17,29.624-72.357C359.178,144.194,312.985,98,256,98z"/>
<path style="fill:#FFBA00;" d="M256,98c-56.985,0-103.178,46.195-103.178,103.178c0,28.187,11.303,53.735,29.624,72.357l0.006-0.007
	c12.535,12.49,21.48,28.577,25.179,46.577L256,341.003V98z"/>
<g>
	<polygon style="fill:#FF8E00;" points="271.673,0 256,0 245.551,31.502 256,63.003 271.673,63.003 	"/>
	<polygon style="fill:#FF8E00;" points="256,512 271.673,512 271.673,448.997 256,448.997 245.551,480.498 	"/>
</g>
<path style="fill:#2D64BC;" d="M235.102,354.361L256,414.001h11.087c16.263,0,29.447-13.183,29.447-29.447v-9.294L235.102,354.361z"
	/>
<g>
	<rect x="240.327" style="fill:#FFBA00;" width="15.673" height="63.007"/>
	<rect x="240.327" y="448.993" style="fill:#FFBA00;" width="15.673" height="63.007"/>
	
		<rect x="138.586" y="32.923" transform="matrix(-0.3827 -0.9239 0.9239 -0.3827 190.2844 224.3375)" style="fill:#FFBA00;" width="63.009" height="31.348"/>
</g>
<rect x="310.418" y="447.722" transform="matrix(0.3827 0.9239 -0.9239 0.3827 639.1924 -29.8357)" style="fill:#FF8E00;" width="63.009" height="31.348"/>
<rect x="65.756" y="81.583" transform="matrix(0.7071 0.7071 -0.7071 0.7071 97.2571 -40.2875)" style="fill:#FFBA00;" width="63.007" height="31.347"/>
<rect x="383.238" y="399.084" transform="matrix(0.7071 0.7071 -0.7071 0.7071 414.7525 -171.7865)" style="fill:#FF8E00;" width="63.007" height="31.347"/>
<rect x="17.088" y="154.419" transform="matrix(-0.9239 -0.3827 0.3827 -0.9239 28.3921 345.8341)" style="fill:#FFBA00;" width="63.009" height="31.348"/>
<rect x="431.895" y="326.221" transform="matrix(0.9239 0.3827 -0.3827 0.9239 166.1153 -151.3122)" style="fill:#FF8E00;" width="63.009" height="31.348"/>
<rect y="240.327" style="fill:#FFBA00;" width="63.007" height="31.347"/>
<rect x="448.993" y="240.327" style="fill:#FF8E00;" width="63.007" height="31.347"/>
<rect x="17.086" y="326.245" transform="matrix(-0.9239 0.3827 -0.3827 -0.9239 224.3304 639.2157)" style="fill:#FFBA00;" width="63.009" height="31.348"/>
<rect x="431.892" y="154.42" transform="matrix(0.9239 -0.3827 0.3827 0.9239 -29.818 190.2853)" style="fill:#FF8E00;" width="63.009" height="31.348"/>
<rect x="81.57" y="383.249" transform="matrix(0.7071 0.7071 -0.7071 0.7071 321.7562 52.7165)" style="fill:#FFBA00;" width="31.347" height="63.007"/>
<rect x="399.063" y="65.743" transform="matrix(-0.7071 -0.7071 0.7071 -0.7071 639.2359 459.2739)" style="fill:#FF8E00;" width="31.347" height="63.007"/>
<rect x="154.42" y="431.892" transform="matrix(0.9239 0.3827 -0.3827 0.9239 190.2853 -29.818)" style="fill:#FFBA00;" width="31.348" height="63.009"/>
<rect x="326.236" y="17.081" transform="matrix(0.9239 0.3827 -0.3827 0.9239 44.6205 -127.1471)" style="fill:#FF8E00;" width="31.348" height="63.009"/>
<path style="fill:#6499F3;" d="M256,354.361l-40.535,20.898v9.294c0,16.263,13.183,29.447,29.447,29.447H256V354.361z"/>
<polygon style="fill:#FDE09C;" points="320.61,199.449 298.445,177.284 256,219.728 213.554,177.284 191.39,199.449 
	240.327,248.386 240.327,320.107 271.673,320.107 271.673,248.386 "/>
<path style="fill:#9BD6FF;" d="M304.198,320.106H256l-20.898,27.577L256,375.259h48.198c7.76,0,14.051-6.29,14.051-14.051v-27.051
	C318.249,326.397,311.957,320.106,304.198,320.106z"/>
<path style="fill:#C4EAFF;" d="M256,320.106h-48.198c-7.76,0-14.051,6.29-14.051,14.051v27.051c0,7.76,6.29,14.051,14.051,14.051
	H256V320.106z"/>
<g>
</g>
<g>
</g>
<g>
</g>
<g>
</g>
<g>
</g>
<g>
</g>
<g>
</g>
<g>
</g>
<g>
</g>
<g>
</g>
<g>
</g>
<g>
</g>
<g>
</g>
<g>
</g>
<g>
</g>
</svg>
